<?xml version="1.0" encoding="UTF-8" standalone="no"?>
<!DOCTYPE svg PUBLIC "-//W3C//DTD SVG 1.1//EN" "http://www.w3.org/Graphics/SVG/1.1/DTD/svg11.dtd">
<!-- 由 Microsoft Visio, SVG Export 生成 树.svg Page-1 -->
<svg xmlns="http://www.w3.org/2000/svg" xmlns:xlink="http://www.w3.org/1999/xlink" xmlns:ev="http://www.w3.org/2001/xml-events"
		xmlns:v="http://schemas.microsoft.com/visio/2003/SVGExtensions/" width="8.26772in" height="11.6929in"
		viewBox="0 0 595.276 841.89" xml:space="preserve" color-interpolation-filters="sRGB" class="st4">
	<v:documentProperties v:langID="2052" v:metric="true" v:viewMarkup="false">
		<v:userDefs>
			<v:ud v:nameU="msvNoAutoConnect" v:val="VT0(1):26"/>
		</v:userDefs>
	</v:documentProperties>

	<style type="text/css">
	<![CDATA[
		.st1 {fill:#ffffff;stroke:#000000;stroke-linecap:round;stroke-linejoin:round;stroke-width:0.24}
		.st2 {fill:#000000;font-family:微软雅黑;font-size:1.16666em}
		.st3 {stroke:#000000;stroke-linecap:round;stroke-linejoin:round;stroke-width:0.75}
		.st4 {fill:none;fill-rule:evenodd;font-size:12px;overflow:visible;stroke-linecap:square;stroke-miterlimit:3}
	]]>
	</style>

	<g v:mID="0" v:index="1" v:groupContext="foregroundPage">
		<title>页-1</title>
		<v:pageProperties v:drawingScale="0.0393701" v:pageScale="0.0393701" v:drawingUnits="24" v:shadowOffsetX="8.50394"
				v:shadowOffsetY="-8.50394"/>
		<v:layer v:name="连接线" v:index="0"/>
		<g id="shape1-1" v:mID="1" v:groupContext="shape" transform="translate(198.425,-728.504)">
			<title>圆形</title>
			<desc>+</desc>
			<v:userDefs>
				<v:ud v:nameU="visVersion" v:val="VT0(15):26"/>
			</v:userDefs>
			<v:textBlock v:margins="rect(4,4,4,4)" v:tabSpace="42.5197"/>
			<v:textRect cx="11.3386" cy="830.551" width="19.85" height="17.0079"/>
			<path d="M0 830.55 A11.3386 11.3386 0 0 1 22.68 830.55 A11.3386 11.3386 0 1 1 0 830.55 Z" class="st1"/>
			<text x="6.15" y="834.75" class="st2" v:langID="2052"><v:paragraph v:horizAlign="1"/><v:tabList/>+</text>		</g>
		<g id="shape2-4" v:mID="2" v:groupContext="shape" transform="translate(124.724,-685.984)">
			<title>圆形.2</title>
			<desc>+</desc>
			<v:userDefs>
				<v:ud v:nameU="visVersion" v:val="VT0(15):26"/>
			</v:userDefs>
			<v:textBlock v:margins="rect(4,4,4,4)" v:tabSpace="42.5197"/>
			<v:textRect cx="11.3386" cy="830.551" width="19.85" height="17.0079"/>
			<path d="M0 830.55 A11.3386 11.3386 0 0 1 22.68 830.55 A11.3386 11.3386 0 1 1 0 830.55 Z" class="st1"/>
			<text x="6.15" y="834.75" class="st2" v:langID="2052"><v:paragraph v:horizAlign="1"/><v:tabList/>+</text>		</g>
		<g id="shape3-7" v:mID="3" v:groupContext="shape" transform="translate(340.157,-685.984)">
			<title>圆形.3</title>
			<desc>*</desc>
			<v:userDefs>
				<v:ud v:nameU="visVersion" v:val="VT0(15):26"/>
			</v:userDefs>
			<v:textBlock v:margins="rect(4,4,4,4)" v:tabSpace="42.5197"/>
			<v:textRect cx="11.3386" cy="830.551" width="19.85" height="17.0079"/>
			<path d="M0 830.55 A11.3386 11.3386 0 0 1 22.68 830.55 A11.3386 11.3386 0 1 1 0 830.55 Z" class="st1"/>
			<text x="8.15" y="834.75" class="st2" v:langID="2052"><v:paragraph v:horizAlign="1"/><v:tabList/>*</text>		</g>
		<g id="shape4-10" v:mID="4" v:groupContext="shape" transform="translate(96.378,-651.969)">
			<title>圆形.4</title>
			<desc>a</desc>
			<v:userDefs>
				<v:ud v:nameU="visVersion" v:val="VT0(15):26"/>
			</v:userDefs>
			<v:textBlock v:margins="rect(4,4,4,4)" v:tabSpace="42.5197"/>
			<v:textRect cx="11.3386" cy="830.551" width="19.85" height="17.0079"/>
			<path d="M0 830.55 A11.3386 11.3386 0 0 1 22.68 830.55 A11.3386 11.3386 0 1 1 0 830.55 Z" class="st1"/>
			<text x="7.47" y="834.75" class="st2" v:langID="2052"><v:paragraph v:horizAlign="1"/><v:tabList/>a</text>		</g>
		<g id="shape5-13" v:mID="5" v:groupContext="shape" transform="translate(175.748,-651.969)">
			<title>圆形.5</title>
			<desc>*</desc>
			<v:userDefs>
				<v:ud v:nameU="visVersion" v:val="VT0(15):26"/>
			</v:userDefs>
			<v:textBlock v:margins="rect(4,4,4,4)" v:tabSpace="42.5197"/>
			<v:textRect cx="11.3386" cy="830.551" width="19.85" height="17.0079"/>
			<path d="M0 830.55 A11.3386 11.3386 0 0 1 22.68 830.55 A11.3386 11.3386 0 1 1 0 830.55 Z" class="st1"/>
			<text x="8.15" y="834.75" class="st2" v:langID="2052"><v:paragraph v:horizAlign="1"/><v:tabList/>*</text>		</g>
		<g id="shape6-16" v:mID="6" v:groupContext="shape" transform="translate(153.071,-608.031)">
			<title>圆形.6</title>
			<desc>b</desc>
			<v:userDefs>
				<v:ud v:nameU="visVersion" v:val="VT0(15):26"/>
			</v:userDefs>
			<v:textBlock v:margins="rect(4,4,4,4)" v:tabSpace="42.5197"/>
			<v:textRect cx="11.3386" cy="830.551" width="19.85" height="17.0079"/>
			<path d="M0 830.55 A11.3386 11.3386 0 0 1 22.68 830.55 A11.3386 11.3386 0 1 1 0 830.55 Z" class="st1"/>
			<text x="6.87" y="834.75" class="st2" v:langID="2052"><v:paragraph v:horizAlign="1"/><v:tabList/>b</text>		</g>
		<g id="shape7-19" v:mID="7" v:groupContext="shape" transform="translate(198.425,-608.031)">
			<title>圆形.7</title>
			<desc>c</desc>
			<v:userDefs>
				<v:ud v:nameU="visVersion" v:val="VT0(15):26"/>
			</v:userDefs>
			<v:textBlock v:margins="rect(4,4,4,4)" v:tabSpace="42.5197"/>
			<v:textRect cx="11.3386" cy="830.551" width="19.85" height="17.0079"/>
			<path d="M0 830.55 A11.3386 11.3386 0 0 1 22.68 830.55 A11.3386 11.3386 0 1 1 0 830.55 Z" class="st1"/>
			<text x="7.83" y="834.75" class="st2" v:langID="2052"><v:paragraph v:horizAlign="1"/><v:tabList/>c</text>		</g>
		<g id="shape8-22" v:mID="8" v:groupContext="shape" transform="translate(311.811,-651.969)">
			<title>圆形.8</title>
			<desc>+</desc>
			<v:userDefs>
				<v:ud v:nameU="visVersion" v:val="VT0(15):26"/>
			</v:userDefs>
			<v:textBlock v:margins="rect(4,4,4,4)" v:tabSpace="42.5197"/>
			<v:textRect cx="11.3386" cy="830.551" width="19.85" height="17.0079"/>
			<path d="M0 830.55 A11.3386 11.3386 0 0 1 22.68 830.55 A11.3386 11.3386 0 1 1 0 830.55 Z" class="st1"/>
			<text x="6.15" y="834.75" class="st2" v:langID="2052"><v:paragraph v:horizAlign="1"/><v:tabList/>+</text>		</g>
		<g id="shape9-25" v:mID="9" v:groupContext="shape" transform="translate(374.173,-651.969)">
			<title>圆形.9</title>
			<desc>g</desc>
			<v:userDefs>
				<v:ud v:nameU="visVersion" v:val="VT0(15):26"/>
			</v:userDefs>
			<v:textBlock v:margins="rect(4,4,4,4)" v:tabSpace="42.5197"/>
			<v:textRect cx="11.3386" cy="830.551" width="19.85" height="17.0079"/>
			<path d="M0 830.55 A11.3386 11.3386 0 0 1 22.68 830.55 A11.3386 11.3386 0 1 1 0 830.55 Z" class="st1"/>
			<text x="6.86" y="834.75" class="st2" v:langID="2052"><v:paragraph v:horizAlign="1"/><v:tabList/>g</text>		</g>
		<g id="shape10-28" v:mID="10" v:groupContext="shape" transform="translate(340.157,-608.031)">
			<title>圆形.10</title>
			<desc>f</desc>
			<v:userDefs>
				<v:ud v:nameU="visVersion" v:val="VT0(15):26"/>
			</v:userDefs>
			<v:textBlock v:margins="rect(4,4,4,4)" v:tabSpace="42.5197"/>
			<v:textRect cx="11.3386" cy="830.551" width="19.85" height="17.0079"/>
			<path d="M0 830.55 A11.3386 11.3386 0 0 1 22.68 830.55 A11.3386 11.3386 0 1 1 0 830.55 Z" class="st1"/>
			<text x="8.91" y="834.75" class="st2" v:langID="2052"><v:paragraph v:horizAlign="1"/><v:tabList/>f</text>		</g>
		<g id="shape11-31" v:mID="11" v:groupContext="shape" transform="translate(283.465,-608.031)">
			<title>圆形.11</title>
			<desc>*</desc>
			<v:userDefs>
				<v:ud v:nameU="visVersion" v:val="VT0(15):26"/>
			</v:userDefs>
			<v:textBlock v:margins="rect(4,4,4,4)" v:tabSpace="42.5197"/>
			<v:textRect cx="11.3386" cy="830.551" width="19.85" height="17.0079"/>
			<path d="M0 830.55 A11.3386 11.3386 0 0 1 22.68 830.55 A11.3386 11.3386 0 1 1 0 830.55 Z" class="st1"/>
			<text x="8.15" y="834.75" class="st2" v:langID="2052"><v:paragraph v:horizAlign="1"/><v:tabList/>*</text>		</g>
		<g id="shape12-34" v:mID="12" v:groupContext="shape" transform="translate(255.118,-564.094)">
			<title>圆形.12</title>
			<desc>d</desc>
			<v:userDefs>
				<v:ud v:nameU="visVersion" v:val="VT0(15):26"/>
			</v:userDefs>
			<v:textBlock v:margins="rect(4,4,4,4)" v:tabSpace="42.5197"/>
			<v:textRect cx="11.3386" cy="830.551" width="19.85" height="17.0079"/>
			<path d="M0 830.55 A11.3386 11.3386 0 0 1 22.68 830.55 A11.3386 11.3386 0 1 1 0 830.55 Z" class="st1"/>
			<text x="6.86" y="834.75" class="st2" v:langID="2052"><v:paragraph v:horizAlign="1"/><v:tabList/>d</text>		</g>
		<g id="shape13-37" v:mID="13" v:groupContext="shape" transform="translate(306.142,-564.094)">
			<title>圆形.13</title>
			<desc>e</desc>
			<v:userDefs>
				<v:ud v:nameU="visVersion" v:val="VT0(15):26"/>
			</v:userDefs>
			<v:textBlock v:margins="rect(4,4,4,4)" v:tabSpace="42.5197"/>
			<v:textRect cx="11.3386" cy="830.551" width="19.85" height="17.0079"/>
			<path d="M0 830.55 A11.3386 11.3386 0 0 1 22.68 830.55 A11.3386 11.3386 0 1 1 0 830.55 Z" class="st1"/>
			<text x="7.37" y="834.75" class="st2" v:langID="2052"><v:paragraph v:horizAlign="1"/><v:tabList/>e</text>		</g>
		<g id="shape15-40" v:mID="15" v:groupContext="shape" transform="translate(649.659,812.798) rotate(147.59)">
			<title>工作表.15</title>
			<path d="M0 841.89 L64.37 841.89" class="st3"/>
		</g>
		<g id="shape16-43" v:mID="16" v:groupContext="shape" transform="translate(449.55,-708.255) rotate(15.7447)">
			<title>工作表.16</title>
			<path d="M0 841.89 L127.15 841.89" class="st3"/>
		</g>
		<g id="shape17-46" v:mID="17" v:groupContext="shape" transform="translate(822.716,628.201) rotate(124.398)">
			<title>工作表.17</title>
			<path d="M0 841.89 L21.79 841.89" class="st3"/>
		</g>
		<g id="shape18-49" v:mID="18" v:groupContext="shape" transform="translate(528.873,-596.223) rotate(27.1973)">
			<title>工作表.18</title>
			<path d="M0 841.89 L39.34 841.89" class="st3"/>
		</g>
		<g id="shape19-52" v:mID="19" v:groupContext="shape" transform="translate(902.139,617.816) rotate(120.81)">
			<title>工作表.19</title>
			<path d="M0 841.89 L28.62 841.89" class="st3"/>
		</g>
		<g id="shape20-55" v:mID="20" v:groupContext="shape" transform="translate(918.177,-244.613) rotate(59.1896)">
			<title>工作表.20</title>
			<path d="M0 841.89 L28.62 841.89" class="st3"/>
		</g>
		<g id="shape21-58" v:mID="21" v:groupContext="shape" transform="translate(1038.15,628.201) rotate(124.398)">
			<title>工作表.21</title>
			<path d="M0 841.89 L21.79 841.89" class="st3"/>
		</g>
		<g id="shape22-61" v:mID="22" v:groupContext="shape" transform="translate(954.821,-442.72) rotate(45)">
			<title>工作表.22</title>
			<path d="M0 841.89 L25.43 841.89" class="st3"/>
		</g>
		<g id="shape23-64" v:mID="23" v:groupContext="shape" transform="translate(1085.39,526.433) rotate(113.807)">
			<title>工作表.23</title>
			<path d="M0 841.89 L30.49 841.89" class="st3"/>
		</g>
		<g id="shape24-67" v:mID="24" v:groupContext="shape" transform="translate(979.938,-349.94) rotate(50.4088)">
			<title>工作表.24</title>
			<path d="M0 841.89 L31.9 841.89" class="st3"/>
		</g>
		<g id="shape25-70" v:mID="25" v:groupContext="shape" transform="translate(935.554,767.08) rotate(129.591)">
			<title>工作表.25</title>
			<path d="M0 841.89 L31.9 841.89" class="st3"/>
		</g>
		<g id="shape26-73" v:mID="26" v:groupContext="shape" transform="translate(1025.89,-200.676) rotate(59.1896)">
			<title>工作表.26</title>
			<path d="M0 841.89 L28.62 841.89" class="st3"/>
		</g>
	</g>
</svg>
